<?xml version="1.0" encoding="UTF-8"?>
<svg width="512" height="512" viewBox="0 0 512 512" xmlns="http://www.w3.org/2000/svg">
    <path fill="#24292F" d="M256 0C114.6 0 0 114.6 0 256c0 113.1 73.3 209 175.1 242.9 12.8 2.4 17.5-5.6 17.5-12.4 0-6.1-.2-22.3-.4-43.7C121 458.2 106 413 106 413c-11.6-29.5-28.5-37.4-28.5-37.4-23.2-15.9 1.8-15.6 1.8-15.6 25.7 1.8 39.2 26.4 39.2 26.4 22.8 39.1 59.9 27.8 74.5 21.2 2.3-16.5 8.9-27.8 16.2-34.2-56.8-6.5-116.6-28.4-116.6-126.5 0-28 10-50.8 26.3-68.7-2.6-6.5-11.4-32.5 2.5-67.8 0 0 21.5-6.9 70.4 26.2 20.4-5.7 42.3-8.5 64.1-8.6 21.8.1 43.7 2.9 64.1 8.6 48.9-33.1 70.3-26.2 70.3-26.2 14 35.3 5.2 61.3 2.6 67.8 16.4 17.9 26.3 40.7 26.3 68.7 0 98.3-59.9 120-117 126.3 9.2 7.9 17.4 23.5 17.4 47.4 0 34.2-.3 61.8-.3 70.3 0 6.8 4.7 14.8 17.6 12.3C438.7 465 512 369.1 512 256 512 114.6 397.4 0 256 0z"/>
</svg>
