<?xml version="1.0" encoding="UTF-8"?>
<svg width="512" height="512" viewBox="0 0 512 512" xmlns="http://www.w3.org/2000/svg">
    <path fill="#FF7A59" d="M512 256c0 141.4-114.6 256-256 256S0 397.4 0 256 114.6 0 256 0s256 114.6 256 256zM245.7 152c-17.7 0-32 14.3-32 32v53.3h-37.3v-53.3c0-38.4 31.1-69.3 69.3-69.3s69.3 31 69.3 69.3v10.7h-37.3v-10.7c0-17.7-14.3-32-32-32zm-69.3 138.7v69.3c0 38.4 31.1 69.3 69.3 69.3s69.3-31 69.3-69.3v-10.7h37.3v10.7c0 58.7-47.6 106.7-106.7 106.7S138.7 419.4 138.7 360v-69.3h37.7zm234.7-53.4h-37.3v138.7h37.3V237.3zm0-85.3h-37.3v42.7h37.3V152z"/>
</svg>