<?xml version="1.0" encoding="UTF-8"?>
<svg width="512" height="512" viewBox="0 0 512 512" xmlns="http://www.w3.org/2000/svg">
    <path fill="#635BFF" d="M512 256c0 141.4-114.6 256-256 256S0 397.4 0 256 114.6 0 256 0s256 114.6 256 256zM144 208.5v17.8c0 5.5 4.5 10 10 10h61.8c26.5 0 48 21.5 48 48s-21.5 48-48 48H144c-5.5 0-10 4.5-10 10v17.8c0 5.5 4.5 10 10 10h71.8c47.1 0 85.3-38.2 85.3-85.3s-38.2-85.3-85.3-85.3H144zm224 95v-95c0-5.5-4.5-10-10-10h-20c-5.5 0-10 4.5-10 10v95c0 5.5 4.5 10 10 10h20c5.5 0 10-4.5 10-10z"/>
</svg>