<svg width="200" height="40" viewBox="0 0 200 40" fill="none" xmlns="http://www.w3.org/2000/svg">
  <path d="M20 0C8.954 0 0 8.954 0 20C0 31.046 8.954 40 20 40C31.046 40 40 31.046 40 20C40 8.954 31.046 0 20 0ZM20 28C15.582 28 12 24.418 12 20C12 15.582 15.582 12 20 12C24.418 12 28 15.582 28 20C28 24.418 24.418 28 20 28Z" fill="#3CDFFF"/>
  <path d="M53 10.5V28H57.5V10.5H53ZM72.2617 10.5V28H76.7617V22.2H83.5117V18.2H76.7617V14.5H84.5117V10.5H72.2617ZM98.5859 10.5L90.8359 28H95.7359L97.0359 24.4H104.436L105.736 28H110.636L102.886 10.5H98.5859ZM98.6359 20.8L100.736 15.3L102.836 20.8H98.6359ZM114.359 10.5V28H118.859V10.5H114.359ZM130.953 28.5C133.02 28.5 134.787 27.9333 136.253 26.8C137.72 25.6667 138.687 24.1 139.153 22.1L134.953 21.1C134.687 22.1667 134.22 23 133.553 23.6C132.887 24.2 131.987 24.5 130.853 24.5C129.453 24.5 128.32 24 127.453 23C126.587 22 126.153 20.6 126.153 18.8V18.7C126.153 16.9 126.587 15.5 127.453 14.5C128.32 13.5 129.453 13 130.853 13C131.987 13 132.887 13.3333 133.553 14C134.22 14.6667 134.687 15.5333 134.953 16.6L139.153 15.5C138.687 13.5 137.72 11.9333 136.253 10.8C134.787 9.66667 133.02 9.1 130.953 9.1C128.753 9.1 126.887 9.66667 125.353 10.8C123.82 11.9333 122.67 13.4333 121.903 15.3C121.137 17.1667 120.753 19.2 120.753 21.4V21.5C120.753 23.0333 120.953 24.4333 121.353 25.7C121.753 26.9667 122.337 28.0667 123.103 29C123.87 29.9333 124.803 30.6667 125.903 31.2C127.003 31.7333 128.22 32 129.553 32C130.753 32 131.887 31.7667 132.953 31.3C134.02 30.8333 134.987 30.2 135.853 29.4L133.553 26.3C132.487 27.1 131.187 27.5 129.653 27.5C128.487 27.5 127.47 27.2 126.603 26.6C125.737 26 125.087 25.2 124.653 24.2C124.22 23.2 124.003 22.0667 124.003 20.8V19.9C124.003 18.2333 124.303 16.8 124.903 15.6C125.503 14.4 126.337 13.4667 127.403 12.8C128.47 12.1333 129.653 11.8 130.953 11.8C132.553 11.8 133.853 12.2333 134.853 13.1C135.853 13.9667 136.553 15.1333 136.953 16.6L138.353 15.7C137.887 14.1 137.12 12.7667 136.053 11.7C134.987 10.6333 133.72 9.83333 132.253 9.3C130.787 8.76667 129.253 8.5 127.653 8.5C125.52 8.5 123.62 8.96667 121.953 9.9C120.287 10.8333 118.987 12.1667 118.053 13.9C117.12 15.6333 116.653 17.7 116.653 20.1V20.3C116.653 22.7 117.103 24.7667 118.003 26.5C118.903 28.2333 120.187 29.5667 121.853 30.5C123.52 31.4333 125.42 31.9 127.553 31.9C129.02 31.9 130.387 31.6 131.653 31C132.92 30.4 134.02 29.5667 134.953 28.5H130.953ZM145.359 10.5V14.5H152.009V28H156.509V14.5H163.159V10.5H145.359Z" fill="white"/>
</svg>
