<?xml version="1.0" encoding="UTF-8"?>
<svg width="48" height="48" viewBox="0 0 48 48" fill="none" xmlns="http://www.w3.org/2000/svg">
  <!-- Glowing effect -->
  <defs>
    <filter id="glow" x="-20%" y="-20%" width="140%" height="140%">
      <feGaussianBlur in="SourceGraphic" stdDeviation="2" result="blur" />
      <feColorMatrix in="blur" type="matrix" values="0 0 0 0 0.235   0 0 0 0 0.875   0 0 0 0 1  0 0 0 0.5 0" />
    </filter>
  </defs>
  
  <!-- Background -->
  <rect width="48" height="48" rx="24" fill="#1A1A2E" />
  
  <!-- Chart grid -->
  <path d="M12 36h24M12 28h24M12 20h24M12 12h24" stroke="#3CDFFF" stroke-opacity="0.2" stroke-width="1" />
  <path d="M12 36v-24M20 36v-24M28 36v-24M36 36v-24" stroke="#3CDFFF" stroke-opacity="0.2" stroke-width="1" />
  
  <!-- Trending line -->
  <path d="M12 32l8-12 8 4 8-12" stroke="#3CDFFF" stroke-width="2.5" filter="url(#glow)" />
  
  <!-- Data points -->
  <circle cx="12" cy="32" r="2" fill="#3CDFFF" filter="url(#glow)" />
  <circle cx="20" cy="20" r="2" fill="#3CDFFF" filter="url(#glow)" />
  <circle cx="28" cy="24" r="2" fill="#3CDFFF" filter="url(#glow)" />
  <circle cx="36" cy="12" r="2" fill="#3CDFFF" filter="url(#glow)" />
  
  <!-- Magnifying glass -->
  <circle cx="30" cy="18" r="6" stroke="#3CDFFF" stroke-width="2" transform="scale(0.5) translate(40 20)" filter="url(#glow)" />
  <path d="M34 22l4 4" stroke="#3CDFFF" stroke-width="2" transform="scale(0.5) translate(40 20)" filter="url(#glow)" />
</svg> 