<svg xmlns="http://www.w3.org/2000/svg" viewBox="0 0 24 24" fill="none" stroke="currentColor" stroke-width="2" stroke-linecap="round" stroke-linejoin="round">
  <path d="M4.5 3.5v6.5a2.5 2.5 0 0 0 5 0V3.5"></path>
  <path d="M4.5 14.5v6a2.5 2.5 0 0 0 5 0"></path>
  <path d="M14.5 3.5v6.5a2.5 2.5 0 0 0 5 0V3.5"></path>
  <path d="M14.5 14.5v6a2.5 2.5 0 0 0 5 0v-6.5"></path>
  <path d="M9.5 3.5v7a2.5 2.5 0 0 1-5 0v-7"></path>
  <path d="M19.5 17.5v-7a2.5 2.5 0 0 0-5 0v7"></path>
  <circle cx="7" cy="14" r="2.5"></circle>
  <circle cx="17" cy="14" r="2.5"></circle>
</svg>