<svg xmlns="http://www.w3.org/2000/svg" viewBox="0 0 32 32" fill="#FFE01B">
  <path d="M16 3C8.82 3 3 8.82 3 16s5.82 13 13 13 13-5.82 13-13S23.18 3 16 3zm-2 21.95c-2.77 0-4.58-1.84-4.58-4.37 0-2.56 1.79-4.42 4.58-4.42s4.58 1.84 4.58 4.42c0 2.54-1.79 4.37-4.58 4.37zm10.03-1.45c-.82.82-1.92 1.27-3.08 1.27-.86 0-1.66-.26-2.32-.75-.66-.49-1.12-1.17-1.36-1.97 2.03-.41 3.57-2.24 3.57-4.42 0-2.48-2.01-4.5-4.5-4.5s-4.5 2.02-4.5 4.5c0 2.18 1.54 4.01 3.57 4.42-.24.8-.7 1.48-1.36 1.97-.66.49-1.46.75-2.32.75-1.16 0-2.26-.45-3.08-1.27s-1.27-1.92-1.27-3.08c0-1.16.45-2.26 1.27-3.08s1.92-1.27 3.08-1.27c.93 0 1.8.29 2.52.84.17-.3.37-.58.59-.84-1-.73-2.22-1.15-3.5-1.15-3.31 0-6 2.69-6 6 0 3.31 2.69 6 6 6 1.86 0 3.53-.86 4.63-2.2 1.1 1.34 2.77 2.2 4.63 2.2 3.31 0 6-2.69 6-6 0-3.31-2.69-6-6-6-1.28 0-2.5.42-3.5 1.15.22.26.42.54.59.84.72-.55 1.59-.84 2.52-.84 1.16 0 2.26.45 3.08 1.27s1.27 1.92 1.27 3.08c0 1.16-.45 2.26-1.27 3.08z"/>
</svg> 