<?xml version="1.0" encoding="UTF-8"?>
<svg width="48" height="48" viewBox="0 0 48 48" fill="none" xmlns="http://www.w3.org/2000/svg">
  <!-- Glowing effect -->
  <defs>
    <filter id="glow" x="-20%" y="-20%" width="140%" height="140%">
      <feGaussianBlur in="SourceGraphic" stdDeviation="2" result="blur" />
      <feColorMatrix in="blur" type="matrix" values="0 0 0 0 0.235   0 0 0 0 0.875   0 0 0 0 1  0 0 0 0.5 0" />
    </filter>
  </defs>
  
  <!-- Background -->
  <rect width="48" height="48" rx="24" fill="#1A1A2E" />
  
  <!-- Outer circle -->
  <circle cx="24" cy="24" r="16" 
          stroke="#3CDFFF" 
          stroke-opacity="0.3" 
          stroke-width="2" />
  
  <!-- Dollar symbol -->
  <path d="M24 16v16M27 19h-4.5c-1.5 0-2.5 1-2.5 2.5s1 2.5 2.5 2.5h3c1.5 0 2.5 1 2.5 2.5s-1 2.5-2.5 2.5H20" 
        stroke="#3CDFFF" 
        stroke-width="2"
        filter="url(#glow)" />
  
  <!-- Multiplication symbols -->
  <path d="M36 18l2 2M36 20l2-2" 
        stroke="#3CDFFF" 
        stroke-width="1.5"
        filter="url(#glow)" />
  
  <path d="M38 28l2 2M38 30l2-2" 
        stroke="#3CDFFF" 
        stroke-width="1.5"
        filter="url(#glow)" />
  
  <path d="M34 24l2 2M34 26l2-2" 
        stroke="#3CDFFF" 
        stroke-width="1.5"
        filter="url(#glow)" />
</svg> 