<?xml version="1.0" encoding="UTF-8"?>
<svg width="48" height="48" viewBox="0 0 48 48" fill="none" xmlns="http://www.w3.org/2000/svg">
  <!-- Glowing effect -->
  <defs>
    <filter id="glow" x="-20%" y="-20%" width="140%" height="140%">
      <feGaussianBlur in="SourceGraphic" stdDeviation="2" result="blur" />
      <feColorMatrix in="blur" type="matrix" values="0 0 0 0 0.235   0 0 0 0 0.875   0 0 0 0 1  0 0 0 0.5 0" />
    </filter>
  </defs>
  
  <!-- Background -->
  <rect width="48" height="48" rx="24" fill="#1A1A2E" />
  
  <!-- Shield outline -->
  <path d="M24 12l10 4v8c0 5.523-4.477 10-10 10s-10-4.477-10-10v-8l10-4z" 
        stroke="#3CDFFF" 
        stroke-width="2"
        stroke-opacity="0.3" />
  
  <!-- Inner shield -->
  <path d="M24 14l8 3.2v6.4c0 4.418-3.582 8-8 8s-8-3.582-8-8v-6.4l8-3.2z" 
        stroke="#3CDFFF" 
        stroke-width="2"
        filter="url(#glow)" />
  
  <!-- Upward arrow -->
  <path d="M24 28v-8M21 22l3-3 3 3" 
        stroke="#3CDFFF" 
        stroke-width="2"
        filter="url(#glow)" />
  
  <!-- Protection circles -->
  <circle cx="24" cy="20" r="1" fill="#3CDFFF" filter="url(#glow)" />
  <circle cx="24" cy="24" r="1" fill="#3CDFFF" filter="url(#glow)" />
  <circle cx="24" cy="28" r="1" fill="#3CDFFF" filter="url(#glow)" />
</svg> 