<?xml version="1.0" encoding="UTF-8"?>
<svg width="98" height="98" viewBox="0 0 98 98" xmlns="http://www.w3.org/2000/svg">
    <g fill="none" fill-rule="evenodd">
        <path d="M20.5 54.5c0 5.523-4.477 10-10 10s-10-4.477-10-10 4.477-10 10-10h10v10zm5 0c0-5.523 4.477-10 10-10s10 4.477 10 10v24.5c0 5.523-4.477 10-10 10s-10-4.477-10-10V54.5z" fill="#E01E5A"/>
        <path d="M54.5 20.5c-5.523 0-10-4.477-10-10s4.477-10 10-10 10 4.477 10 10v10h-10zm0 5c5.523 0 10 4.477 10 10s-4.477 10-10 10H30c-5.523 0-10-4.477-10-10s4.477-10 10-10h24.5z" fill="#36C5F0"/>
        <path d="M88.5 54.5c0-5.523 4.477-10 10-10s10 4.477 10 10-4.477 10-10 10h-10v-10zm-5 0c0 5.523-4.477 10-10 10s-10-4.477-10-10V30c0-5.523 4.477-10 10-10s10 4.477 10 10v24.5z" fill="#2EB67D"/>
        <path d="M54.5 88.5c5.523 0 10 4.477 10 10s-4.477 10-10 10-10-4.477-10-10v-10h10zm0-5c-5.523 0-10-4.477-10-10s4.477-10 10-10H79c5.523 0 10 4.477 10 10s-4.477 10-10 10H54.5z" fill="#ECB22E"/>
    </g>
</svg>