<?xml version="1.0" encoding="UTF-8"?>
<svg width="200" height="200" viewBox="0 0 200 200" fill="none" xmlns="http://www.w3.org/2000/svg">
  <!-- Glow effect -->
  <filter id="glow">
    <feGaussianBlur stdDeviation="4" result="blur" />
    <feComposite in="SourceGraphic" in2="blur" operator="over" />
  </filter>
  
  <!-- Brain paths -->
  <path d="M100 40C80 40 60 50 60 80C60 110 80 120 100 120C120 120 140 110 140 80C140 50 120 40 100 40Z" 
        stroke="#3CDFFF" stroke-width="4" filter="url(#glow)"/>
  
  <!-- Neural connections -->
  <path d="M70 70C80 60 90 65 100 70C110 75 120 60 130 70" 
        stroke="#3CDFFF" stroke-width="2" filter="url(#glow)"/>
  <path d="M70 90C80 80 90 85 100 90C110 95 120 80 130 90" 
        stroke="#3CDFFF" stroke-width="2" filter="url(#glow)"/>
  
  <!-- Nodes -->
  <circle cx="70" cy="70" r="3" fill="#3CDFFF" filter="url(#glow)"/>
  <circle cx="100" cy="70" r="3" fill="#3CDFFF" filter="url(#glow)"/>
  <circle cx="130" cy="70" r="3" fill="#3CDFFF" filter="url(#glow)"/>
  <circle cx="70" cy="90" r="3" fill="#3CDFFF" filter="url(#glow)"/>
  <circle cx="100" cy="90" r="3" fill="#3CDFFF" filter="url(#glow)"/>
  <circle cx="130" cy="90" r="3" fill="#3CDFFF" filter="url(#glow)"/>
</svg> 