<?xml version="1.0" encoding="UTF-8" standalone="no"?>
<svg width="180" height="60" viewBox="0 0 180 60" xmlns="http://www.w3.org/2000/svg">
  <defs>
    <linearGradient id="logoGradient" x1="0%" y1="0%" x2="100%" y2="0%">
      <stop offset="0%" stop-color="#3CDFFF" />
      <stop offset="100%" stop-color="#4AFFD4" />
    </linearGradient>
  </defs>
  
  <!-- S letter with gradient -->
  <path d="M30 15C25 15 20 18 20 23C20 28 25 29 35 31C45 33 50 35 50 42C50 50 41 55 30 55C23 55 16 53 10 48L15 40C20 45 25 47 30 47C35 47 40 45 40 41C40 37 35 36 25 34C15 32 10 28 10 22C10 14 19 7 30 7C36 7 42 9 47 13L42 20C38 17 34 15 30 15Z" fill="url(#logoGradient)"/>
  
  <!-- Y letter -->
  <path d="M60 10H70L80 30L90 10H100L82 42V55H72V42L60 10Z" fill="url(#logoGradient)"/>
  
  <!-- N letter -->
  <path d="M110 10H120V40L140 10H150V55H140V25L120 55H110V10Z" fill="url(#logoGradient)"/>
  
  <!-- C letter -->
  <path d="M170 15C165 15 160 20 160 32.5C160 45 165 50 170 50C173 50 176 48 178 45L182 52C178 56 174 58 169 58C159 58 150 50 150 32.5C150 15 159 7 169 7C174 7 178 9 182 13L178 20C176 17 173 15 170 15Z" fill="url(#logoGradient)"/>
</svg> 