<?xml version="1.0" encoding="UTF-8"?>
<svg width="48" height="48" viewBox="0 0 48 48" fill="none" xmlns="http://www.w3.org/2000/svg">
  <!-- Background -->
  <rect width="48" height="48" rx="8" fill="#1A1A2E" />
  
  <!-- Cloud shape -->
  <path d="M35 26.5c0 3.038-2.462 5.5-5.5 5.5h-15c-2.485 0-4.5-2.015-4.5-4.5 0-2.316 1.752-4.216 4.007-4.465.058-3.33 2.792-6 6.143-6 2.277 0 4.258 1.235 5.312 3.069.717-.444 1.563-.704 2.474-.704 2.602 0 4.714 2.089 4.764 4.679.773.815 1.3 1.889 1.3 3.421z" 
        fill="#00A1E0" 
        filter="url(#glow)" />
  
  <!-- Glowing effect -->
  <defs>
    <filter id="glow" x="-20%" y="-20%" width="140%" height="140%">
      <feGaussianBlur in="SourceGraphic" stdDeviation="1" result="blur" />
      <feColorMatrix in="blur" type="matrix" values="0 0 0 0 0   0 0 0 0 0.631   0 0 0 0 0.878  0 0 0 0.5 0" />
    </filter>
  </defs>
</svg> 